# xmcd CD database file
#
# Track frame offsets:
#	150
#	12162
#	23750
#	36597
#	48142
#	60262
#	71265
#	83252
#	96490
#	111782
#	124520
#	137137
#	150737
#	163455
#	175622
#	190882
#	202115
#	215477
#	229390
#	240347
#	252965
#	269740
#	282797
#	303152
#
# Disc length: 4212 seconds
#
# Revision: 0
# Processed by: cddbd v1.4PL0 Copyright (c) Steve Scherf et al.
# Submitted via: CDex 1.50
#
DISCID=4a107218
DTITLE=Conway Twitty - The Very Best Of Conway Twitty
DYEAR=1998
DGENRE=Country
TTITLE0=It`s Only Make Beleive  (with Loretta Lynn)
TTITLE1=Guess My Eyes Were Bigger Than My Heart
TTITLE2=Next In Line
TTITLE3=I Love You More Today
TTITLE4=To See My Angel Cry
TTITLE5=Hello Darlin`
TTITLE6=I Can`t See Me Without You
TTITLE7=How Much More Can She Stand
TTITLE8=Our Last Date
TTITLE9=I Can`t Stop Loving You
TTITLE10=She Needs Someone To Hold Her
TTITLE11=You`ve Never Been This Far Before
TTITLE12=I See The Want To In Your Eyes
TTITLE13=Linda On My Mind
TTITLE14=Touch The Hand
TTITLE15=This Time I`ve Hurt Her More
TTITLE16=After All The Good Is Gone
TTITLE17=The Games That Daddies Play
TTITLE18=She Gives It All To Me
TTITLE19=I`ve Already Loved You In My Mind
TTITLE20=Don`t Take It Away
TTITLE21=Happy Birthday Darlin`
TTITLE22=Rest Your Love On Me
TTITLE23=Tight Fittin` Jeans
EXTD=YEAR: 1998
EXTT0=
EXTT1=
EXTT2=
EXTT3=
EXTT4=
EXTT5=
EXTT6=
EXTT7=
EXTT8=
EXTT9=
EXTT10=
EXTT11=
EXTT12=
EXTT13=
EXTT14=
EXTT15=
EXTT16=
EXTT17=
EXTT18=
EXTT19=
EXTT20=
EXTT21=
EXTT22=
EXTT23=
PLAYORDER=
